<svg xmlns="http://www.w3.org/2000/svg" width="548" height="408" viewBox="0 0 548 408"><defs><linearGradient id="z76la" x1="368.1" x2="368.1" y1="48.07" y2="38.81" gradientUnits="userSpaceOnUse"><stop offset="0" stop-color="gray" stop-opacity=".25"/><stop offset=".54" stop-color="gray" stop-opacity=".12"/><stop offset="1" stop-color="gray" stop-opacity=".1"/></linearGradient><linearGradient id="z76lb" x1="231048.62" x2="231048.62" y1="331841.3" y2="23136.67" gradientUnits="userSpaceOnUse"><stop offset="0" stop-color="gray" stop-opacity=".25"/><stop offset=".54" stop-color="gray" stop-opacity=".12"/><stop offset="1" stop-color="gray" stop-opacity=".1"/></linearGradient></defs><g><g><g opacity=".6"><path fill="#587eec" d="M318.248 69.548c-35.067-1.22-68.493-12.548-100.362-24.94-31.87-12.391-63.457-26.123-97.703-32.69-22.019-4.227-47.2-4.822-64.938 6.99C38.172 30.272 32.657 49.89 29.691 68.092c-2.23 13.696-3.525 28.109 2.574 40.934 4.245 8.899 11.78 16.382 16.992 24.909 18.13 29.666 5.313 66.251-14.338 95.242-9.216 13.606-19.909 26.552-27.02 41.02-7.11 14.467-10.405 31.042-4.18 45.797 6.17 14.614 20.865 25.609 36.79 33.334 32.343 15.678 70.452 20.163 107.615 22.733 82.262 5.628 164.967 3.189 247.446.75 30.525-.907 61.185-1.819 91.212-6.551 16.675-2.625 33.893-6.787 46.001-16.836 15.365-12.759 19.178-34.358 8.879-50.357-17.275-26.829-65.034-33.496-77.111-62.291-6.642-15.848.182-33.506 9.841-48.205 20.714-31.531 55.444-59.197 57.273-95.243 1.259-24.758-15.437-49.546-41.252-61.262-27.055-12.291-64.575-10.739-84.534 9.574-20.553 20.929-56.673 28.981-87.631 27.908z"/></g><g/><g><path fill="#587eec" d="M56.91 262.204c2.427 3.286 3.525 17.21 3.525 17.21s-12.978-5.115-15.41-8.396a7.405 7.405 0 0 1 1.538-10.353 7.394 7.394 0 0 1 10.347 1.54z"/></g><g><path fill="#587eec" d="M80.19 273.132c.252 4.077-6.38 16.363-6.38 16.363s-8.124-11.359-8.38-15.436a7.4 7.4 0 0 1 1.869-5.299 7.391 7.391 0 0 1 12.887 4.372z"/></g><g><path fill="#587eec" d="M102.755 304.534c-1.833 3.649-13.764 10.905-13.764 10.905s-1.274-13.908.559-17.557a7.394 7.394 0 0 1 9.867-3.162 7.396 7.396 0 0 1 3.338 9.814z"/></g><g><path fill="#587eec" d="M114.484 332.133c-1.194 3.906-11.725 13.072-11.725 13.072s-3.61-13.49-2.417-17.4a7.398 7.398 0 0 1 9.234-4.911 7.395 7.395 0 0 1 4.908 9.24z"/></g><g><path fill="#587eec" d="M61.809 299.37c4.029.545 16.766-5.21 16.766-5.21s-10.748-8.91-14.797-9.454a7.39 7.39 0 0 0-8.312 6.347 7.401 7.401 0 0 0 6.343 8.317z"/></g><g><path fill="#587eec" d="M75.935 331.48c4.03-.69 14.44-9.987 14.44-9.987s-12.924-5.281-16.948-4.59a7.39 7.39 0 0 0-6.013 5.658 7.402 7.402 0 0 0 2.974 7.705 7.39 7.39 0 0 0 5.557 1.215z"/></g><g><path fill="#587eec" d="M93.938 360.795c4.085 0 15.92-7.402 15.92-7.402S98.018 346 93.933 346a7.4 7.4 0 0 0 0 14.795z"/></g><g/><g><path fill="#587eec" d="M484.994 105.485c-2.93 2.842-16.574 5.785-16.574 5.785s3.35-13.555 6.28-16.403a7.39 7.39 0 0 1 12.446 5.447 7.4 7.4 0 0 1-2.152 5.171z"/></g><g><path fill="#587eec" d="M477.278 129.994c-4.03.796-17.058-4.153-17.058-4.153s10.173-9.574 14.177-10.355a7.389 7.389 0 0 1 7.727 3.079 7.4 7.4 0 0 1-4.846 11.429z"/></g><g><path fill="#587eec" d="M449.196 156.542c-3.858-1.336-12.626-12.2-12.626-12.2s13.598-3.115 17.466-1.78a7.392 7.392 0 0 1 5.05 6.56 7.401 7.401 0 0 1-4.194 7.138 7.39 7.39 0 0 1-5.696.282z"/></g><g><path fill="#587eec" d="M423.384 171.836c-4.029-.665-14.484-9.912-14.484-9.912s12.888-5.372 16.912-4.707a7.409 7.409 0 0 1 3.113 13.324 7.397 7.397 0 0 1-5.516 1.29z"/></g><g><path fill="#587eec" d="M448.84 115.24c-.005 4.087 7.403 15.945 7.403 15.945s7.398-11.843 7.398-15.924a7.401 7.401 0 0 0-4.516-7.01 7.39 7.39 0 0 0-9.759 4.12 7.402 7.402 0 0 0-.506 2.89z"/></g><g><path fill="#587eec" d="M418.914 133.516c1.218 3.9 11.815 12.996 11.815 12.996s3.525-13.515 2.296-17.416a7.397 7.397 0 0 0-9.182-4.598 7.394 7.394 0 0 0-4.92 9.018z"/></g><g><path fill="#587eec" d="M392.282 155.268c.543 4.032 9.448 14.8 9.448 14.8s5.746-12.724 5.202-16.77a7.401 7.401 0 0 0-5.412-6.33 7.389 7.389 0 0 0-7.868 2.723 7.4 7.4 0 0 0-1.37 5.577z"/></g><g opacity=".25"><path d="M484.994 105.485c-2.93 2.842-16.574 5.785-16.574 5.785s3.35-13.555 6.28-16.403a7.39 7.39 0 0 1 12.446 5.447 7.4 7.4 0 0 1-2.152 5.171z"/></g><g opacity=".25"><path d="M477.278 129.994c-4.03.796-17.058-4.153-17.058-4.153s10.173-9.574 14.177-10.355a7.389 7.389 0 0 1 7.727 3.079 7.4 7.4 0 0 1-4.846 11.429z"/></g><g opacity=".25"><path d="M449.196 156.542c-3.858-1.336-12.626-12.2-12.626-12.2s13.598-3.115 17.466-1.78a7.392 7.392 0 0 1 5.05 6.56 7.401 7.401 0 0 1-4.194 7.138 7.39 7.39 0 0 1-5.696.282z"/></g><g opacity=".25"><path d="M423.384 171.836c-4.029-.665-14.484-9.912-14.484-9.912s12.888-5.372 16.912-4.707a7.409 7.409 0 0 1 3.113 13.324 7.397 7.397 0 0 1-5.516 1.29z"/></g><g opacity=".25"><path d="M448.84 115.24c-.005 4.087 7.403 15.945 7.403 15.945s7.398-11.843 7.398-15.924a7.401 7.401 0 0 0-4.516-7.01 7.39 7.39 0 0 0-9.759 4.12 7.402 7.402 0 0 0-.506 2.89z"/></g><g opacity=".25"><path d="M418.914 133.516c1.218 3.9 11.815 12.996 11.815 12.996s3.525-13.515 2.296-17.416a7.397 7.397 0 0 0-9.182-4.598 7.394 7.394 0 0 0-4.92 9.018z"/></g><g opacity=".25"><path d="M392.282 155.268c.543 4.032 9.448 14.8 9.448 14.8s5.746-12.724 5.202-16.77a7.401 7.401 0 0 0-5.412-6.33 7.389 7.389 0 0 0-7.868 2.723 7.4 7.4 0 0 0-1.37 5.577z"/></g><g/><g><path fill="#587eec" d="M446.098 73.706c-1.511 3.79-12.813 12.014-12.813 12.014s-2.427-13.752-.901-17.542a7.397 7.397 0 0 1 9.627-4.09 7.398 7.398 0 0 1 4.086 9.633z"/></g><g><path fill="#587eec" d="M448.974 99.264c-3.339 2.349-17.274 3.12-17.274 3.12s5.43-12.87 8.768-15.219a7.391 7.391 0 0 1 11.656 4.357 7.402 7.402 0 0 1-3.15 7.737z"/></g><g><path fill="#587eec" d="M434.039 134.931c-4.07.343-16.489-6.047-16.489-6.047s11.18-8.365 15.25-8.708a7.391 7.391 0 0 1 5.391 1.721 7.4 7.4 0 0 1-4.152 13.024z"/></g><g><path fill="#587eec" d="M416.65 159.369c-3.954 1.007-17.27-3.16-17.27-3.16s9.604-10.134 13.558-11.162a7.39 7.39 0 0 1 9.012 5.304 7.402 7.402 0 0 1-5.3 9.018z"/></g><g><path fill="#587eec" d="M417.003 97.315c1.652 3.734 13.205 11.59 13.205 11.59s1.964-13.828.313-17.562a7.395 7.395 0 0 0-9.68-3.61 7.396 7.396 0 0 0-3.838 9.597z"/></g><g><path fill="#587eec" d="M397.047 126.146c2.694 3.069 16.06 7.09 16.06 7.09s-2.256-13.782-4.95-16.851a7.395 7.395 0 0 0-7.98-2.21 7.392 7.392 0 0 0-5.025 6.585 7.402 7.402 0 0 0 1.895 5.386z"/></g><g><path fill="#587eec" d="M381.487 156.842c2.135 3.477 14.63 9.7 14.63 9.7s.106-13.964-2.014-17.446a7.393 7.393 0 0 0-12.591 7.746z"/></g><g><path fill="url(#z76la)" d="M366.82 48.072c.836-3.069 1.843-6.153 2.548-9.262"/></g><g><path fill="url(#z76lb)" d="M363.046 77.633c-.07-.121-.121-.242-.176-.353 0-.047-.044-.086-.066-.132a3.18 3.18 0 0 1-.317.127 7.594 7.594 0 0 1-.68.232c-.231.065-.327.1-.503.14-.146.051-.296.09-.448.117l.04.09c.186-.04.367-.075.554-.126l.05.625c.212 0 .408-.03.6-.03h1.279l-.113-.243c-.074-.148-.152-.302-.22-.447zm.338.69c.1.217.216.439.327.655.071.131.136.257.202.393.015-.005.402-.116 1.072-.262l.504-.106c.393-.08.896-.166 1.4-.252l.267-.05.272-.04a5.86 5.86 0 0 0-1.063-2.827 4.16 4.16 0 0 0-.801-.207c-.12-.02-.241-.045-.377-.045a14.884 14.884 0 0 0-2.926 0l-.096-.555v-.13l-.383.025c.025.06.051.126.081.186.272.615.554 1.24.861 1.865a1.138 1.138 0 0 0 .08.175 3.18 3.18 0 0 1-.317.127 7.594 7.594 0 0 1-.68.232c-.231.065-.327.1-.503.14l-.448.117.04.09c.186-.04.367-.075.554-.126l.05.625c.212 0 .408-.03.6-.03a2.45 2.45 0 0 1 .271 0h1.008l-.113-.243c.042.083.082.165.118.243zm101.923 162.144c1.313 8.465 2.16 17.008 2.68 25.559.15 2.466.035 5.015-.675 7.382-.883 2.944-2.68 5.533-4.029 8.295-.016.034-.044.06-.066.091-1.161 1.57-2.069 3.366-3.485 4.712-4.331 4.115-9.068 7.783-13.673 11.59-4.67 3.86-9.426 7.613-14.147 11.409-.01.008-.028-.006-.04 0-1.632.77-3.302 1.468-4.89 2.328-1.482.803-3.051 1.525-4.306 2.651-.611.548-.754 1.459-1.103 2.202-.075.16-.065.359-.167.504-.036.05-.124-.002-.186 0-.685.021-1.37.046-2.055.07-.381.013-.977-.302-1.143.041-.346.713-.018 1.585-.03 2.378 0 .011-.008.022-.008.033 0 .011.007.022.008.033 2.113 16.343 10.099 72.312 3.334 74.672-49.615 17.312-108.233 17.881-157.645 0-13.901-5.03 1.01-65.332 3.43-82.282.436-3.05.267-6.157.332-9.237.113-5.396.126-10.794.202-16.191.013-.887.95-2.604.065-2.661-8.295-.535-17.18 4.103-24.914 1.059-7.493-2.949-11.957-10.945-16.716-17.441-1.06-1.446-.18-3.594 0-5.377.996-9.813 2.361-19.585 3.526-29.379.01-.09-.008-.182 0-.272.034-.362.28-.755.126-1.084-1.955-4.165-4.25-8.162-6.381-12.24-.227-.434-.808-.818-.695-1.295 2.069-8.755 4.482-17.432 7.151-26.023.726-2.338 1.25-5.002 3.016-6.697 1.766-1.694 4.497-1.947 6.815-2.732.338-.114.712.084 1.068.061.176-.011.457.009.503-.161 2.913-10.84 5.103-21.877 8.31-32.635 1.317-4.417 2.125-9.395 5.233-12.799 3.821-4.185 9.672-5.911 14.524-8.839 8.939-5.394 17.86-10.818 26.849-16.126 4.651-2.747 9.002-6.171 14.071-8.038 2.967-1.093 6.302-.567 9.463-.63.504-.01.957.496 1.455.414.331-.054.325-.74.66-.761.33-.022.494.44.73.67.25.245.808 1.098.731.756-.037-.162-1.705-2.55-1.813-2.621-.28-.186-.672.006-1.008 0-.722-.013-1.628.428-2.165-.055-13.562-12.198-27.126-24.444-39.731-37.628-.958-1.002-.289-2.769-.212-4.153.162-2.92.623-5.814.927-8.723.005-.045-.01-.091 0-.136.141-.63.293-1.258.453-1.884.067-.263.15-.521.227-.781.046-.157.285-.392.141-.47-2.956-1.587-3.993-.802-6.164-3.36-.29-.341-2.586-3.57-2.614-5.045-.041-2.21-.685-4.633.272-6.626 1.77-3.69 4.654-6.792 7.554-9.68 2.885-2.875 6.887-4.496 9.665-7.474 1.48-1.585 1.085-4.536 2.79-5.876 5.229-4.108 10.743-8.863 17.309-9.917 4.558-.732 36.453 8.088 40.608 8.975 3.027.646 6.546-.405 9.211 1.17 3.496 2.064 6.351 5.42 8.128 9.07 2.04 4.193 2.526 9.032 2.942 13.676.208 2.32-.736 4.599-1.098 6.9-.004.024.006.05 0 .075-1.154 4.51-2.855 8.912-3.48 13.525-.58 4.288.623 11.38 2.085 15.617.086.25.391-.907.453-.65.23.956-.577 2.789-1.163 3.406-.66.696-1.788.902-2.322 1.699-.204.303.73.07 1.088.14.306.06.605.15.901.248.266.086.625.307.816.488.134.127.213.304.343.434.097.097.244.137.332.242.18.213.337.449.458.7.417.864.314 2.172 1.153 2.636 4.33 2.394 9.45 3.146 13.744 5.603.864.495.701 1.866.977 2.822 1.637 5.68.542 12.942 4.76 17.083 5.814 5.708 15.125 6.096 22.461 9.641 9.062 4.379 18.165 8.765 26.693 14.11 2.662 1.669 5.606 3.76 6.582 6.747 3.65 11.172 4.623 23.048 6.92 34.575 2.194 11.01 12.321 61.637 13.849 71.487zM367.921 85.469a1.73 1.73 0 0 0-.302-.55v-.035l-.191.262.085.121.121.161c.126.162.252.338.378.504a1.98 1.98 0 0 0-.091-.463zm-3.963-6.093c.307.645.65 1.28 1.007 1.915.282-.075.715-.176 1.264-.287a14.597 14.597 0 0 0-2.271-1.628zm1.601 2.868c.162.277.328.544.504.821.111-.146.222-.328.322-.504a12.587 12.587 0 0 0-.468-.358c-.186-.136-.388-.267-.594-.403l-.041-.03a.153.153 0 0 0 0 .03c.086.182.177.333.277.444zm-122.97 306.645a248.272 248.272 0 0 0 4.417 5.502H104.984c1.077-2.575 1.908-4.303 1.908-4.303s9.146-39.725 14.832-61.394a.278.278 0 0 0 0-.05 866.64 866.64 0 0 1 1.33-4.933 62.67 62.67 0 0 1-9.03 6.344c-4.03 2.368-8.773 4.535-13.25 4.087a10.505 10.505 0 0 1-3.244-.837c.035-.01.035-.04.035-.04h-.035c3.43-3.976 4.3-9.408 5.036-14.558l6.044-42.169 2.397-16.786c1.506-10.512 3.017-21.14 2.085-31.722-.685-7.791-2.614-16.07.79-23.125 1.799-3.745 4.987-6.839 5.994-10.87.816-3.266.055-6.743.594-10.079a17.108 17.108 0 0 1 1.486-4.369c.206-.453.453-.907.71-1.36.451-.814.956-1.597 1.51-2.344l.217-.287c.333-.413.66-.806 1.008-1.184l-.429-.131a5.513 5.513 0 0 1-2.875-1.794.035.035 0 0 1 0 .025c-.025-.04-.056-.07-.086-.111a.074.074 0 0 0-.025-.035c2.105-1.356 2.488-4.344 1.637-6.707a7.363 7.363 0 0 0-.116-.303c-1.002-2.393-2.976-4.217-4.77-6.117a44.763 44.763 0 0 1-1.334-1.512c-1.229-1.527-2.21-3.24-2.377-5.155-.433-4.903 4.502-8.718 5.374-13.566.876-4.933-2.6-9.721-2.327-14.715.332-6.042 5.907-10.446 11.412-12.966a52.255 52.255 0 0 1 26.606-4.535c7.399.7 14.606 2.983 22.004 3.87 4.462.529 8.985.549 13.421 1.335 4.438.787 8.874 2.424 11.992 5.655 2.135 2.202 3.052 4.298 3.238 6.369v.051c.025.407.025.816 0 1.224-.141 3.22-1.858 6.37-3.314 9.681a27.237 27.237 0 0 1 1.546 1.894 36.986 36.986 0 0 1 6.487 13.682 37.21 37.21 0 0 1-3.209 25.921 37.177 37.177 0 0 1-19.454 17.417l-.262.101c-.68.262-1.37.508-2.07.73a71.524 71.524 0 0 0-.61 2.207c-.12.459-.24.913-.347 1.381-.12.469-.236.932-.342 1.411-1.123 4.772-1.984 9.671-2.634 14.009.529.172 1.063.348 1.566.529 12.984 4.541 20.649 10.83 20.649 10.83l-.04.635.04.035-.096 1.371-.04.645-.73 10.723c.11.237.473 1.049.977 2.253.01.025.035.06.035.091 3.102 7.186 11.976 28.209 14.101 35.839.373 1.376.539 2.313.408 2.661-1.017 2.676 7.766 36.232 7.766 36.232s4.422 17.587 8.653 37.548h.141l1.551-.207c.166.786.332 1.572.503 2.369a798.24 798.24 0 0 1 1.985 9.665c1.51 7.619 2.054 15.738 2.095 23.241zM136.964 187.847c-.08.141-.161.287-.247.428-.267.474-.544.942-.806 1.416a23.746 23.746 0 0 0-1.103 2.207c-.14.318-.267.64-.382.968a10.59 10.59 0 0 0-.514 2.666c-.025.206-.025.413-.025.614-.015 3.13 1.54 6.103 2.926 8.955 1.978 4 3.594 8.169 4.83 12.457.196-.141.387-.282.589-.408.267-.171.534-.338.806-.504-.15-.889-.22-1.789-.212-2.691a2.756 2.756 0 0 1 .222-1.557.36.36 0 0 0 .08-.141c-.262-1.27-1.566-3.744-1.652-7.917a2.4 2.4 0 0 1 0-.383 2.642 2.642 0 0 1 0-.287c-.116-5.357 9.131-1.829 9.131-1.829a391.505 391.505 0 0 0-.645-5.347v-.05c-.08-.65-.166-1.3-.256-1.94l-.076-.625a39.814 39.814 0 0 1-1.098-.333 150.885 150.885 0 0 1-10.485-3.704l-.585-.242-.503-.186v-.045c.035-.207.08-.414.08-.62v-.197-.428-.469c-.035.056-.06.111-.095.171z"/></g><g><path fill="#e8f5ff" d="M253.029 151.65l-3.022 1.336s-19.697 76.567-19.697 82.755c0 6.188 41.766 40.622 41.766 40.622l6.517-44.013s-9.358-100.932-25.565-80.7z"/></g><g><path fill="#ffb0b1" d="M344.644 127.297l-17.45-9.11a34.988 34.988 0 0 0-5.117-11.667c-2.553-3.688-5.948-7.312-10.178-9.201-10.692-4.798 45.225-29.979 45.225-29.979a91.076 91.076 0 0 0 3.108 8.92c2.88 7.115 7.66 16.317 13.82 18.937 10.47 4.46-29.408 32.1-29.408 32.1z"/></g><g opacity=".1"><path d="M360.232 76.26a41.717 41.717 0 0 1-14.204 21.282 41.675 41.675 0 0 1-23.951 8.978c-2.553-3.688-5.948-7.312-10.178-9.201-10.692-4.798 45.225-29.979 45.225-29.979a91.05 91.05 0 0 0 3.108 8.92z"/></g><g><path fill="#ffb0b1" d="M361.8 63.54a41.708 41.708 0 0 1-7.017 23.165 41.67 41.67 0 0 1-18.698 15.36 41.642 41.642 0 0 1-45.41-9.034 41.713 41.713 0 0 1-9.033-45.436 41.684 41.684 0 0 1 15.348-18.71 41.647 41.647 0 0 1 23.15-7.025 41.447 41.447 0 0 1 29.513 12.151 41.496 41.496 0 0 1 12.147 29.53z"/></g><g><path fill="#575a89" d="M367.822 121.94l-11.361 26.526-10.023 17.607h-32.08L305 142l3.792-24.964h24.502l15.819-.892 5.343-1.784 3.445 1.955z"/></g><g opacity=".1"><path d="M363.908 86.579s7.086 1.512.74 6.717c-6.345 5.206-28.238 21.76-28.238 21.76s7.69 6.853 6.099 14.88l25.478-14.21 4.533-22.737s.509-6.833-8.612-6.41z"/></g><g opacity=".1"><path d="M341.413 115.06l-16.207 2.676s3.345 12.371 1.672 15.884c-.05.109-.092.222-.125.337l-6.613 17.885 4.956 14.044 17.153-23.407-5.847-8.86s6.18-8.193 9.856-11.035c3.676-2.843-4.845-7.524-4.845-7.524z"/></g><g><path fill="#dce6f2" d="M341.413 114.37l-16.207 2.67s3.345 12.372 1.672 15.885a2.36 2.36 0 0 0-.125.337l-6.613 17.885 4.956 14.044 17.153-23.422-5.847-8.86s6.18-8.193 9.856-11.036c3.676-2.842-4.845-7.503-4.845-7.503z"/></g><g><path fill="#575a89" d="M364.588 85.249s7.086 1.512.735 6.717c-6.35 5.206-28.913 23.095-28.913 23.095s8.355 5.518 6.769 13.54l25.478-14.205 4.533-22.737s.503-6.833-8.602-6.41z"/></g><g opacity=".1"><path d="M323.19 108.1s1.546 2.893 8.37 8.108c0 0-11.362 6.047-7.016 14.549l-17.38-4.536-2.674-8.36z"/></g><g><path fill="#575a89" d="M322.525 107.43s1.546 2.893 8.37 8.108c0 0-11.362 6.017-7.016 14.544l-17.375-4.536-2.674-8.355z"/></g><g opacity=".1"><path d="M367.822 121.944l-11.361 26.527-10.002 17.607h-32.102L305 142.005l3.787-24.964h6.814c-.11 5.825 2.015 12.668 1.879 15.213-.232 4.183 6.235 26.749 6.235 26.749s13.532-21.901 18.876-23.851c3.359-1.225 10.475-11.414 15.305-18.832z"/></g><g><path fill="#e8f5ff" d="M412.57 261.535l-1.153 1.451s8.355 41.962 6.043 51.492a27.096 27.096 0 0 0-.67 5.23v.076c-.408 9.696 2.518 22.279 2.518 22.279s2.337 37.089 1.008 52.343H263.88c-.917-22.556-1.904-51.779-1.008-55.019 1.511-5.347 4.533-24.743 4.533-24.743l.332-9.192s0-8.884.272-18.781c.116-4.45.287-9.121.534-13.263.317-5.211.76-9.6 1.37-11.757.375-1.635.591-3.302.645-4.979 0-.156 0-.317.03-.479 0-.504.05-1.048.07-1.607v-.504c.096-3.245.06-7.095-.045-11.086v-.661a452.84 452.84 0 0 0-.353-8.949 728.705 728.705 0 0 0-1.007-16.741l-19.213-63.696 5.177-12.76 14.369-8.808 26.566-16.05c12.958-10.658 21.49-9.379 24.743-8.21.316.108.625.235.927.379.1.05.181.09.257.136.103.049.202.106.297.17a6.135 6.135 0 0 0-2.257 1.86 8.225 8.225 0 0 0-1.395 3.024 14.08 14.08 0 0 0-.357 2.061c-.066.73-.09 1.487-.09 2.248a39 39 0 0 0 .427 4.983v.111c.166 1.18.373 2.334.574 3.417a.223.223 0 0 0 0 .055c.232 1.265.464 2.434.62 3.442.03.182.055.348.08.504.111.666.164 1.34.157 2.016.056 1.63.276 3.25.654 4.838.131.665.282 1.375.448 2.116.227 1.008.474 2.106.74 3.225.147.615.303 1.25.464 1.88.06.252.126.504.186.76l.101.399a474.341 474.341 0 0 0 2.951 11.086c.423 1.512.69 2.444.69 2.444s7.585-12.27 13.639-19.255c.09-.1.17-.196.256-.287.6-.69 1.189-1.32 1.753-1.875 1.234-1.23 2.342-2.106 3.233-2.429.19-.07.374-.155.55-.257 2.477-1.405 6.476-6.51 10.218-11.857.368-.504.725-1.053 1.088-1.572a187.65 187.65 0 0 0 2.397-3.558c.584-.882 1.143-1.739 1.672-2.555a349.658 349.658 0 0 0 4.291-6.843l3.495-.156.609-.03h.408l15.87-.736s.685.116 1.813.342c.06 0 .121 0 .186.04 5.631 1.12 21.273 4.662 22.23 9.575 1.168 6.017 26.4 14.045 26.4 14.045.332 4.031 6.512 6.687 6.512 6.687s9.357 24.743 6.854 34.438c-2.473 9.575 6.437 33.26 6.673 33.925l-1.707 2.156z"/></g><g opacity=".1"><path d="M363.898 84.825s15.446-4.385 18.956 4.64c3.51 9.026 11.362 45.475 11.362 45.475s-20.387 3.845-25.73 0a15.39 15.39 0 0 0-10.863-2.842l-11.529 7.856-3.404-1.008s18.443-27.433 22.452-36.756c4.008-9.323 5.363-13.49-1.244-17.365z"/></g><g><path fill="#e8f5ff" d="M363.228 82.805s15.456-4.385 18.981 4.64c3.526 9.026 11.362 45.475 11.362 45.475s-20.382 3.845-25.73 0a15.374 15.374 0 0 0-10.858-2.842l-11.538 7.856-3.405-1.008s18.443-27.433 22.452-36.756c4.008-9.323 5.343-13.48-1.265-17.365z"/></g><g opacity=".1"><path d="M259.55 228.22s11.528 2.842 13.704 9.363c2.175 6.52-8.522 6.687-8.522 6.687s-6.516-11.535-5.182-16.05z"/></g><g opacity=".1"><path d="M302.483 276.36s-28.233 57.846-21.716 63.364c6.516 5.518 21.716-63.364 21.716-63.364z"/></g><g opacity=".1"><path d="M341.42 233.73s22.557 56.188 18.045 64.866c-4.513 8.677 9.69 0 9.69 0z"/></g><g><path fill="#ffb0b1" d="M372.827 289.24s-76.188 3.679-53.964 27.419c22.226 23.74 67.834 1.008 67.834 1.008z"/></g><g opacity=".1"><path d="M361.805 63.542a41.515 41.515 0 0 1-3.158 15.934c-.7.08-1.4.131-2.075.161-1.007-2.212-.468-4.767-.448-7.2.02-2.435-.876-5.297-3.218-5.952-4.669-1.315-7.892 7.418-12.495 5.84-3.526-1.2-2.604-6.55-4.634-9.64-1.606-2.444-4.824-3.134-7.327-4.666-5.324-3.27-5.162-8.502-7.635-13.45-2.589-5.186-8.058-3.654-12.808-.595-3.605 2.328-6.718 5.448-10.576 7.302-3.339 1.613-7.09 2.197-10.792 2.283a23.699 23.699 0 0 1-6.769-.716 41.69 41.69 0 0 1 17.066-23.913 41.645 41.645 0 0 1 54.503 7.117 41.705 41.705 0 0 1 10.36 27.495z"/></g><g><path fill="#575a89" d="M308.019 42.636c-3.611 2.328-6.719 5.443-10.577 7.307-3.339 1.608-7.09 2.192-10.792 2.278-4.533.1-9.413-.695-12.51-3.971-2.846-3.024-3.526-7.675-2.322-11.64 1.204-3.967 4.09-7.257 7.479-9.64 3.39-2.384 7.322-4.032 9.569-7.444 1.188-1.804 1.762-3.93 2.75-5.85 3.157-6.143 10.258-9.47 17.123-9.882 6.864-.414 13.668 1.632 20.205 3.85 6.537 2.217 13.125 4.656 20.024 5.114 3.072.192 6.265 0 9.116 1.164 3.833 1.558 6.346 5.282 8.058 9.071 1.919 4.274 3.112 8.94 2.911 13.606-.423 9.963-7 19.739-4.11 29.283.766 2.545 2.201 5.156 1.436 7.7-1.118 3.714-5.908 4.561-9.78 4.737-1.008-2.212-.469-4.772-.449-7.2.02-2.43-.876-5.297-3.213-5.952-4.674-1.305-7.897 7.413-12.49 5.84-3.5-1.204-2.594-6.55-4.628-9.64-1.607-2.449-4.83-3.134-7.328-4.666-5.323-3.27-5.162-8.501-7.635-13.45-2.609-5.21-8.083-3.679-12.837-.615z"/></g><g><path fill="#e8f5ff" d="M234.15 234.397l-3.843 1.34s1.511 22.738-3.525 29.259c-5.036 6.52 16.54 22.732 16.54 22.732s29.572-.166 30.408-2.52c.836-2.353-1.51-42.128-1.51-42.128s-15.875-6.188-14.54-16.05c0 0-4.845 23.236-12.027 22.233-7.182-1.003-15.336-7.004-11.503-14.866z"/></g><g opacity=".1"><path d="M246.958 256.305c5.599 0 10.138-4.154 10.138-9.278 0-5.123-4.539-9.277-10.138-9.277-5.6 0-10.138 4.154-10.138 9.277 0 5.124 4.539 9.278 10.138 9.278z"/></g><g><path fill="#ffb0b1" d="M258.043 235.075s-2.015-61.52-19.551-47.813c-17.536 13.707-17.708 30.1-14.369 34.942 3.34 4.843 14.046 29.087 14.046 29.087a12.248 12.248 0 0 0 18.13-8.063z"/></g><g opacity=".1"><path d="M367.44 79.236a1.485 1.485 0 0 0-.453-.695c-.866-.791-2.73-1.068-5.54-.826l.116 1.33c3.747-.323 4.487.423 4.583.55v.125l.116.167a5.62 5.62 0 0 1 1.007 4.434c-.821 4.107-5.862 7.378-5.913 7.413l-.12.07-.076.116c-2.176 3.23-14.479 12.346-17.697 14.705l-.282-.323c-1.441 1.25-14.102 12.342-14.787 16.59-.443 2.665-3.445 3.698-4.532 3.986-1.149-.872-4.876-3.84-6.815-7.166-1.818-3.13 5.5-9.237 6.145-11.62l-1.008-1.034c-.105.383-9.503 9.172-6.89 13.662 2.096 3.603 5.924 6.687 7.263 7.705-.428 3.89-3.092 26.733-7.187 32.145-5.086 6.728-9.362 40.632-8.889 52.469.418 10.517-2.326 30.382-11.492 38.914a14.676 14.676 0 0 1-12.122 4.031h-.222c-.131 0-13.427 1.361-24.597-8.063-9.14-7.695-14.318-20.253-15.396-37.336h-.222l-.09-4.974a9.694 9.694 0 0 0 6.227-3.719 9.704 9.704 0 0 0-1.576-13.367 9.695 9.695 0 0 0-13.408 1.075 9.705 9.705 0 0 0 .572 13.448 9.69 9.69 0 0 0 6.74 2.679h.11l.09 4.944-.442.03c1.108 17.638 6.547 30.684 16.116 38.742a37.252 37.252 0 0 0 25.992 8.511c.669.074 1.341.111 2.014.111a16.51 16.51 0 0 0 11.584-4.661c9.654-8.995 12.59-29.591 12.132-40.465-.504-12.543 3.984-45.228 8.486-51.18 4.412-5.84 7.086-28.597 7.554-33.007 1.597-.448 5.208-1.864 5.822-5.543.444-2.66 8.899-10.86 14.102-15.4l-.156-.181c2.8-2.046 11.508-8.497 15.824-12.639 1.339-1.285 2.669-2.57 4.059-3.794 1.672-1.482 3.797-3.835 4.356-6.617a6.872 6.872 0 0 0-1.098-5.342z"/></g><g><path fill="#353146" d="M322.388 128.11c-.211-.147-5.228-3.74-7.74-8.064-2.61-4.49 6.788-13.273 6.889-13.656l1.007 1.033c-.64 2.379-7.957 8.491-6.139 11.616 2.292 3.945 7.116 7.397 7.167 7.432z"/></g><g><path fill="#e8f5ff" d="M342.806 107.603l-.786-1.084c.161-.116 15.98-11.565 18.473-15.269l.08-.11.116-.076c.05-.035 5.092-3.3 5.913-7.413a5.59 5.59 0 0 0-1.007-4.43l-.116-.17v-.122c-.1-.13-.841-.871-4.588-.549l-.116-1.335c2.815-.242 4.674.035 5.54.826.216.186.374.429.458.7a6.886 6.886 0 0 1 1.138 5.347c-.559 2.787-2.679 5.14-4.356 6.617-1.385 1.224-2.72 2.52-4.054 3.794-5.062 4.853-16.141 12.876-16.695 13.274z"/></g><g><path fill="#e8f5ff" d="M241.69 203.86l-1.335.025.149 8.117 1.334-.024z"/></g><g><path fill="#587eec" d="M240.245 205.092c5.382 0 9.745-4.366 9.745-9.751s-4.363-9.751-9.745-9.751c-5.382 0-9.745 4.366-9.745 9.751s4.363 9.751 9.745 9.751z"/></g><g><path fill="#e8f5ff" d="M240.243 203.436a8.096 8.096 0 0 0 8.094-8.098 8.096 8.096 0 0 0-8.094-8.098 8.096 8.096 0 0 0-8.093 8.098 8.096 8.096 0 0 0 8.093 8.098z"/></g><g><path fill="#353146" d="M284.143 257.418a18.57 18.57 0 0 1-2.015-.106 37.31 37.31 0 0 1-25.992-8.511c-9.569-8.063-14.998-21.095-16.116-38.747l2.015-.126c1.077 17.083 6.255 29.646 15.4 37.336 11.17 9.398 24.462 8.063 24.592 8.063h.222a14.713 14.713 0 0 0 12.127-4.032c9.161-8.531 11.906-28.396 11.488-38.913-.504-11.847 3.772-45.752 8.864-52.474 4.457-5.891 7.222-32.443 7.252-32.71l.075-.756.746-.13c.045 0 4.397-.827 4.94-4.083.706-4.243 13.347-15.334 14.782-16.589l1.314 1.512c-5.222 4.535-13.678 12.74-14.101 15.405-.615 3.689-4.226 5.1-5.817 5.543-.504 4.415-3.158 27.167-7.554 33.007-4.503 5.952-8.99 38.636-8.486 51.179.433 10.875-2.473 31.475-12.128 40.466a16.521 16.521 0 0 1-11.608 4.666z"/></g><g opacity=".1"><g opacity=".01"><path d="M366.1 51.632c.826-3.054 1.823-6.128 2.518-9.222"/></g><g opacity=".01"><path d="M357.666 75.625c-1.007-2.213-.468-4.773-.448-7.201.02-2.43-.876-5.272-3.213-5.952-4.674-1.305-7.897 7.418-12.49 5.84-3.525-1.204-2.594-6.55-4.628-9.64-1.607-2.449-4.825-3.134-7.323-4.666-5.329-3.27-5.167-8.501-7.635-13.45-2.594-5.19-8.058-3.658-12.812-.594-3.611 2.328-6.719 5.447-10.577 7.307-3.339 1.607-7.09 2.192-10.792 2.277-4.508.106-9.413-.695-12.51-3.97-2.387-2.52-3.249-6.214-2.755-9.676-.086.237-.161.474-.237.71-1.208 3.966-.503 8.628 2.322 11.641 3.097 3.276 8.003 4.072 12.51 3.971 3.707-.086 7.454-.67 10.798-2.278 3.868-1.864 6.975-4.978 10.576-7.306 4.754-3.064 10.223-4.596 12.812.594 2.468 4.949 2.312 10.18 7.635 13.45 2.518 1.512 5.716 2.217 7.328 4.666 2.014 3.1 1.123 8.436 4.628 9.64 4.588 1.573 7.811-7.145 12.485-5.84 2.337.655 3.238 3.527 3.213 5.951-.025 2.424-.549 4.99.448 7.201 3.873-.176 8.663-1.007 9.786-4.737.154-.535.226-1.09.211-1.647-1.636 2.827-5.847 3.552-9.332 3.709z"/></g></g><g opacity=".1"><path d="M448.693 199.797l5.847 6.189s4.678 34.1 7.015 37.29c2.337 3.19 7.857 15.879 2.675 25.408 0 0-1.673 5.186-.67 7.358 1.002 2.172-7.514 13.041-7.514 13.041s-11.196 10.028-13.538 11.535c-2.342 1.507-14.7 13.541-18.876 13.707-4.175.166-5.54 5.352-5.54 5.352l-23.56.836s-13.013-.68-15.843 1.159c0 0 1.51-19.895-13.029-32.936l18.543-6.688s7.021-3.023 9.192-6.183a11.342 11.342 0 0 1 5.54-4.177s5.177-3.679 5.343-5.685c.166-2.005 6.33-4.464 6.33-4.464l-3.49-29.808 1.839-49.485s5.847-41.464 18.21-39.12c12.365 2.343 21.526 56.671 21.526 56.671z"/></g><g><path fill="#e8f5ff" d="M450.703 199.797l5.847 6.189s4.678 34.1 7.015 37.29c2.337 3.19 7.857 15.879 2.674 25.408 0 0-1.666 5.186-.664 7.358 1.002 2.172-7.52 13.041-7.52 13.041s-11.195 10.028-13.537 11.535c-2.342 1.507-14.7 13.541-18.876 13.707-4.175.166-5.54 5.352-5.54 5.352l-23.56.836s-13.023-.68-15.843 1.159c0 0 1.51-19.895-13.029-32.936l18.544-6.688s7.02-3.023 9.19-6.183a11.342 11.342 0 0 1 5.54-4.177s5.178-3.679 5.344-5.685c.166-2.005 6.33-4.464 6.33-4.464l-3.49-29.808 1.839-49.485s5.847-41.464 18.21-39.12c12.365 2.343 21.526 56.671 21.526 56.671z"/></g><g opacity=".1"><path d="M428.97 249.787s17.209-4.535 21.721 1.008"/></g><g opacity=".1"><path d="M424.96 257.39c5.847 4.097 23.892 4.263 23.892 4.263"/></g><g opacity=".1"><path d="M433.81 277.87c.504.166 12.404 12.875 17.4 9.03"/></g><g opacity=".1"><path d="M273.54 171.21s3.495 24.078 1.773 33.884c-1.723 9.807 4.563 21.956 4.563 21.956z"/></g><g><path fill="#ffb0b1" d="M196.164 181.003c-4.029 3.16-6.97 10.638-9.1 18.857-3.717 14.337-4.931 30.961-4.931 30.961s-32.081-7.357-29.744-10.698c1.47-2.101-.504-17.935-2.15-29.414-.983-6.783-1.859-12.05-1.859-12.05s58.813-6.354 47.784 2.344z"/></g><g opacity=".1"><path d="M196.164 180.33c-4.029 3.166-6.97 10.639-9.1 18.858a36.996 36.996 0 0 1-36.826-9.146c-.982-6.788-1.858-12.054-1.858-12.054s58.813-6.35 47.784 2.343z"/></g><g><path fill="#ffb0b1" d="M213.404 162.315a37.142 37.142 0 0 1-8.739 23.95 37.089 37.089 0 0 1-47.178 8.07 37.125 37.125 0 0 1-16.194-19.684 37.15 37.15 0 0 1 .31-25.494 37.123 37.123 0 0 1 16.67-19.283 37.088 37.088 0 0 1 46.967 9.22 37.123 37.123 0 0 1 8.164 23.221z"/></g><g opacity=".1"><path d="M242.66 394.405h-10.577l-.891-18.69-.932-19.346s2.402-.358 6.23-.892l1.546-.207h.126a835.993 835.993 0 0 1 2.458 11.983 123.212 123.212 0 0 1 2.06 21.67v1.48c.03 1.346 0 2.692-.02 4.002z"/></g><g><path fill="#eb5569" d="M240.625 394.41H107.99c.574-1.305.957-2.096.957-2.096s10.611-46.452 16.005-66.105a.272.272 0 0 0 0-.051 78.586 78.586 0 0 1 2.438-7.886c.061-.176.14-.345.236-.504 2.67-4.344 6.014-9.026 1.335-15.713-4.679-6.687-3.022-36.111-3.022-36.111s5.681-25.08 11.694-38.455a17.99 17.99 0 0 1 3.818-5.543 15.605 15.605 0 0 1 1.672-1.421 14.68 14.68 0 0 1 1.4-.932l.096-.06a20.196 20.196 0 0 1 8.224-2.556 23.45 23.45 0 0 1 6.17.172c9.75 1.43 17.556 3.824 23.76 6.55 16.816 7.393 21.908 17.3 22.009 17.507l.04.086c.675 1.577 10.546 24.637 14.102 35.396.921 2.801 1.425 4.772 1.223 5.311-1.007 2.67 7.686 36.106 7.686 36.106s4.029 16.126 8.058 35.028c.176.787.342 1.573.503 2.369.72 3.432 1.436 6.929 2.126 10.421a122.585 122.585 0 0 1 2.059 21.82c.074 2.281.089 4.504.046 6.667z"/></g><g opacity=".1"><path d="M152.051 205.47s-9.15-3.527-9.04 1.825c.11 5.352 2.231 7.912 1.561 8.693-.67.78.333 5.462.333 5.462s12.364 0 18.045 2.56c5.68 2.56 26.621 7.69 29.295 9.252 2.675 1.562 12.591 8.567 12.591 8.567l.892-13.263s-10.25-8.471-27.065-12.815c-16.816-4.344-26.612-10.28-26.612-10.28z"/></g><g><path fill="#eb5569" d="M152.051 204.8s-9.15-3.527-9.04 1.825c.11 5.352 2.231 7.912 1.561 8.693-.67.78.333 5.462.333 5.462s12.364 0 18.045 2.565c5.68 2.565 26.621 7.69 29.295 9.247 2.675 1.557 12.591 8.567 12.591 8.567l.901-13.223s-10.248-8.471-27.064-12.815c-16.816-4.344-26.622-10.32-26.622-10.32z"/></g><g opacity=".1"><path d="M179.68 236.72s17.486 18.943 16.595 24.189"/></g><g/><g opacity=".1"><path d="M151.27 305.15s-12.817 11.817-16.594 12.487c-3.778.67 2.896 2.898 7.237 1.12 4.341-1.78 13.598-6.461 13.598-6.461z"/></g><g><path fill="#ffb0b1" d="M245.838 394.404h-29.89c-4.18-3.628-8.133-6.99-10.651-9.01-4.03-3.235-6.935-7.997-8.789-11.827a49.539 49.539 0 0 1-1.088-2.43 40.526 40.526 0 0 1-1.45-3.904l22.134-13.153a34.605 34.605 0 0 1 3.44 3.366l.267.308c1.229 1.45 2.312 3.099 2.407 4.45.111 1.572 4.483 7.654 8.95 13.494 4.532 5.942 9.176 11.621 9.483 12.004 0 0 .765 1.043 2.014 2.646.882 1.159 1.97 2.55 3.173 4.056z"/></g><g opacity=".1"><path d="M205.247 139.096c-1.063 2.399-2.015 4.888-2.156 7.559-.397 7.71.247 24.95-8.284 28.82-4.226 1.904-8.748-2.278-13.381-2.38-3.334-.07-6.391 2.047-8.426 4.693-2.035 2.645-3.299 5.784-4.775 8.778a59.98 59.98 0 0 1-4.628 7.81c-.52.76-1.092 1.483-1.712 2.163a37.098 37.098 0 0 1-13.544-9.812 37.127 37.127 0 0 1-8.446-31.487 37.13 37.13 0 0 1 6.814-15.278 37.079 37.079 0 0 1 58.538-.846z"/></g><g><path fill="#575a89" d="M202.415 145.295c-.403 7.71.246 24.95-8.29 28.814-4.226 1.905-8.748-2.272-13.382-2.373-3.334-.076-6.385 2.046-8.425 4.687-2.04 2.64-3.294 5.785-4.775 8.783a60.085 60.085 0 0 1-4.628 7.81c-1.037 1.472-2.185 2.949-3.782 3.775-2.78 1.452-6.15.635-9.13-.297a149.462 149.462 0 0 1-11.433-4.122c.086-.567.13-1.14.13-1.714-.11.212-.23.409-.352.62l-.236.414a45.5 45.5 0 0 0-1.23 2.287c-.145.298-.286.605-.412.912a11.595 11.595 0 0 0-.942 3.609c-.257 3.36 1.4 6.55 2.87 9.574 5.656 11.696 9.152 25.373 4.896 37.644-1.843 5.336-5.036 10.078-7.368 15.233a49.246 49.246 0 0 0-3.44 29.117c1.164 6.108 3.495 12.155 2.921 18.348-1.007 10.658-10.193 18.59-19.394 24.043-4.971 2.932-11.055 5.543-16.333 3.225 3.364-3.931 4.23-9.368 4.956-14.498a74039.34 74039.34 0 0 1 8.35-58.718c1.48-10.472 2.981-21.059 2.055-31.596-.675-7.766-2.579-16.01.785-23.04 1.778-3.724 4.946-6.808 5.933-10.819.81-3.26.055-6.727.59-10.048.291-1.511.786-2.976 1.47-4.354a21.39 21.39 0 0 1 3.374-5.15c-1.35-.393-2.609-.933-3.374-2.061 2.165-1.411 2.493-4.591 1.51-6.98-.981-2.388-2.946-4.208-4.713-6.092-1.768-1.885-3.47-4.082-3.692-6.652-.428-4.893 4.457-8.683 5.318-13.51.872-4.914-2.573-9.691-2.296-14.665.322-6.012 5.842-10.38 11.291-12.915a51.343 51.343 0 0 1 26.33-4.536c7.343.696 14.449 2.968 21.771 3.85 4.417.504 8.895.555 13.281 1.33 4.387.777 8.783 2.414 11.87 5.635 8.139 8.49-1.611 15.48-2.074 24.43z"/></g><g opacity=".1"><path d="M195.61 373.571c-2.568-1.114-7.242-.448-15.265-2.892s-9.569-13.491-9.569-13.491v-.035c-.095-.252-.84-1.895-5.887-7.649-5.575-6.355-17.627-38.45-17.627-38.45s-10.687-11.485-10.35-15.718c.338-4.233-1.898-15.495-1.677-28.094.222-12.598 24.059-20.953 24.059-20.953 45.895-8.138 35.087 44.804 33.863 48.816-1.223 4.01 5.127 14.845 5.127 14.845-.896 4.717 3.677 12.019 3.677 12.019s1.108 6.46 1.334 8.914c.013.114.038.225.076.333.735 2.313 6.728 4.41 9.166 5.684 2.563 1.34 10.808 13.042 10.808 13.042 1.777 8.592-25.177 24.758-27.735 23.629z"/></g><g><path fill="#eb5569" d="M196.945 371.556c-2.563-1.119-7.242-.449-15.26-2.898-8.018-2.449-9.569-13.485-9.569-13.485v-.035c-.09-.257-.84-1.895-5.887-7.65-5.575-6.354-17.627-38.454-17.627-38.454s-10.687-11.48-10.354-15.713c.332-4.233-1.894-15.496-1.672-28.084.221-12.588 24.043-20.938 24.043-20.938 45.895-8.138 35.087 44.804 33.863 48.816-1.223 4.01 5.127 14.845 5.127 14.845-.896 4.717 3.677 12.019 3.677 12.019s1.108 6.46 1.34 8.915c.008.113.032.225.07.332.735 2.313 6.728 4.41 9.17 5.684 2.56 1.336 10.809 13.042 10.809 13.042 1.788 8.577-25.166 24.743-27.73 23.604z"/></g><g opacity=".1"><path d="M161.52 271.94s20.05 21.165 25.282 21.165"/></g><g><path fill="#ff748e" d="M196.939 371.56c-2.564-1.119-7.242-.449-15.26-2.898-8.018-2.449-9.569-13.485-9.569-13.485v-.035c5.313-3.527 18.77-13.49 24.073-17.133 3.732-2.555 6.78-6.31 8.562-8.799.735 2.313 6.728 4.41 9.171 5.684 2.558 1.336 10.808 13.042 10.808 13.042 1.732 8.597-25.222 24.763-27.785 23.624z"/></g><g opacity=".1"><g opacity=".01"><path d="M123.85 175.458c.025.04.06.076.09.116.152-.191.308-.383.469-.564a3.757 3.757 0 0 1-.559.449z"/></g><g opacity=".01"><path d="M135.533 198.552c.212-2.797 1.707-5.261 3.107-7.72-.916-.353-1.833-.71-2.74-1.084.087-.565.13-1.136.132-1.708-1.416 2.52-2.957 4.999-3.173 7.836-.257 3.366 1.4 6.551 2.87 9.575 5.661 11.69 9.151 25.367 4.896 37.643-1.849 5.332-5.037 10.079-7.368 15.234a49.225 49.225 0 0 0-3.435 29.112c1.153 6.112 3.49 12.154 2.916 18.348-1.007 10.658-10.188 18.59-19.395 24.037-3.762 2.227-8.158 4.268-12.364 4.122a15.24 15.24 0 0 1-1.299 1.789c5.283 2.333 11.362-.292 16.333-3.235 9.21-5.442 18.412-13.354 19.42-24.032.574-6.194-1.763-12.236-2.922-18.348a49.267 49.267 0 0 1 3.425-29.112c2.317-5.15 5.54-9.902 7.368-15.234 4.256-12.276.76-25.952-4.895-37.643-1.466-3.044-3.133-6.214-2.876-9.58z"/></g><g opacity=".01"><path d="M204.48 120.921a14.55 14.55 0 0 0-1.592-1.411c6.104 7.922-2.71 14.654-3.148 23.18-.392 7.71.252 24.955-8.284 28.815-4.22 1.91-8.748-2.272-13.377-2.373-3.339-.07-6.39 2.05-8.43 4.691-2.04 2.64-3.294 5.785-4.77 8.779a60.358 60.358 0 0 1-4.633 7.81c-1.007 1.477-2.186 2.948-3.787 3.78-2.77 1.446-6.14.635-9.126-.302a142.831 142.831 0 0 1-8.632-3.024c-.006.525-.05 1.049-.131 1.567a147.244 147.244 0 0 0 11.437 4.122c2.982.938 6.351 1.75 9.126.303 1.597-.832 2.755-2.308 3.787-3.785a59.364 59.364 0 0 0 4.629-7.805c1.48-2.994 2.73-6.143 4.774-8.784 2.045-2.64 5.092-4.757 8.426-4.686 4.633.1 9.16 4.283 13.38 2.373 8.537-3.86 7.888-21.104 8.286-28.815.463-8.964 10.213-15.949 2.065-24.435z"/></g></g><g opacity=".1"><path d="M138.123 191.696a45.5 45.5 0 0 0-1.229 2.287c-.146.298-.287.605-.413.912-2.639-2.66-9.065-8.985-12.651-10.945a21.494 21.494 0 0 1 3.374-5.15s8.547 4.52 10.919 12.896z"/></g><g><path fill="#eb5569" d="M138.36 191.288c-1.98-8.965-11.156-13.818-11.156-13.818a21.393 21.393 0 0 0-3.374 5.15c3.782 2.071 10.752 9.015 13.064 11.369z"/></g></g></g></svg>