<svg xmlns="http://www.w3.org/2000/svg" width="68" height="73" viewBox="0 0 68 73"><g><g><path fill="#ec5863" d="M45.28 2.631c1.113.551 1.902 1.133 2.433 1.73.534.596.87 1.471.87 1.471.087.223.145.455.173.693l1.65 21.29v.517c0 9.124-7.48 16.591-16.633 16.616h-.045c-9.174 0-16.68-7.477-16.68-16.616a2.764 2.764 0 0 1 0-.518l.173-1.905c.02-.127-.02-.316 0-.432l1.48-18.952c.026-.238.084-.47.172-.693 0 0 .336-.875.87-1.47.53-.596 1.32-1.177 2.432-1.73C24.396 1.525 27.89.64 33.728.64c5.837 0 9.332.883 11.553 1.991zM33.729 44.948h.045c.883-.001 1.767.028 2.648.085 17.093.79 30.665 8.904 30.665 16.27V72.64H.37V61.303c0-7.754 15.011-16.355 33.358-16.355zM24.693 7.563c-.372.186-.42.258-.522.346l-1.129 14.192c2.56.156 6.043.693 10.686.693 4.642 0 8.128-.537 10.685-.692L43.285 7.909c-.106-.088-.15-.16-.523-.346-1.114-.554-3.752-1.385-9.034-1.385-5.282 0-7.92.831-9.035 1.385zm11.292 1.385v3.29h3.302v4.497h-3.302v3.29h-4.514v-3.287h-3.303v-4.5h3.3v-3.29zm-10.597 42.23C13.018 53.199 5.93 59.24 5.93 61.303v5.799h26.583zm9.555 15.924h26.583v-5.8c0-2.062-7.089-8.102-19.459-10.123z"/></g></g></svg>