<svg xmlns="http://www.w3.org/2000/svg" width="88" height="72" viewBox="0 0 88 72"><g><g><path fill="#ec5863" d="M44.254 10.074C48.626 3.986 55.794-.03 63.926-.03c6.376 0 12.492 2.502 17 6.956a23.601 23.601 0 0 1 7.043 16.792c0 2.159-.394 4.318-.962 6.477H48.626c-1.88 0-3.41 1.08-3.978 2.504l-2.58 6.132-9.048-23.187c-1.661-3.8-6.82-3.455-8.131 0l-5.552 14.55H1.502C.933 28.037.54 25.878.54 23.719A23.601 23.601 0 0 1 7.582 6.926c4.509-4.454 10.624-6.956 17-6.956 8.132 0 15.3 4.016 19.672 10.104zM20.65 36.672c1.967 0 3.453-1.252 4.109-2.893l4.196-10.06 8.962 23.013c1.617 3.627 6.644 4.232 8.393-.13l4.065-9.93h33.223a4.4 4.4 0 0 1 3.091 1.264c.82.81 1.28 1.908 1.28 3.053 0 1.146-.46 2.244-1.28 3.054a4.4 4.4 0 0 1-3.09 1.264H72.93L48.626 69.055c-4.372 3.886-4.372 3.886-8.743 0L15.578 45.307H4.91a4.4 4.4 0 0 1-3.09-1.264A4.291 4.291 0 0 1 .54 40.989c0-1.145.46-2.243 1.28-3.053a4.4 4.4 0 0 1 3.091-1.264z"/></g></g></svg>